<?xml version="1.0" standalone="no"?>
<!DOCTYPE svg PUBLIC "-//W3C//DTD SVG 20010904//EN"
 "http://www.w3.org/TR/2001/REC-SVG-20010904/DTD/svg10.dtd">
<svg version="1.0" xmlns="http://www.w3.org/2000/svg"
 width="256.000000pt" height="256.000000pt" viewBox="0 0 256.000000 256.000000"
 preserveAspectRatio="xMidYMid meet">

<g transform="translate(0.000000,256.000000) scale(0.100000,-0.100000)"
fill="#ffff" stroke="none">
<path d="M1945 1735 c-25 -24 -25 -27 -25 -200 l0 -175 -32 0 c-73 0 -105 18
-200 114 -107 107 -159 133 -253 123 -98 -10 -111 -21 -363 -294 -159 -173
-178 -170 -372 62 -103 124 -134 155 -179 178 -98 49 -214 32 -288 -42 -56
-56 -153 -192 -153 -214 0 -52 58 -95 104 -77 14 5 57 49 95 98 39 50 78 93
87 96 20 8 68 8 88 0 9 -3 59 -58 112 -123 187 -225 223 -251 350 -251 115 0
148 23 325 219 83 91 163 172 179 180 46 23 78 6 168 -85 98 -101 160 -134
264 -142 l68 -5 0 -174 c0 -171 0 -174 25 -198 16 -17 35 -25 57 -25 29 0 56
23 255 223 205 204 223 225 223 257 0 32 -18 53 -223 257 -199 200 -226 223
-255 223 -22 0 -41 -8 -57 -25z"/>
</g>
</svg>
